<?xml version="1.0" standalone="no"?><!DOCTYPE svg PUBLIC "-//W3C//DTD SVG 1.1//EN" "http://www.w3.org/Graphics/SVG/1.1/DTD/svg11.dtd"><svg t="1763389350697" class="icon" viewBox="0 0 1181 1024" version="1.1" xmlns="http://www.w3.org/2000/svg" p-id="13268" xmlns:xlink="http://www.w3.org/1999/xlink" width="230.6640625" height="200"><path d="M433.281047 197.146418v49.18815c-149.572932-10.160563-294.577549 78.606522-355.383396 213.489959-20.754327 56.78888-31.1118 118.736806-25.913372 175.525687 10.357473 149.73046 114.129109 273.626312 259.448782 320.057719 197.1858 56.78888 399.570028-51.590453 451.436155-247.791703 22.17208-83.726186 17.840057-159.891023-12.956686-235.031927h54.386577c1.811573 4.371405 3.544382 8.703428 5.277191 13.074832 15.595282 51.590453 20.754327 108.418716 15.595282 165.168214-15.595282 170.366641-134.922819 309.779011-295.798391 356.210419C301.036206 1074.144739 62.341751 934.771752 5.277197 702.457185c0-30.954272-5.198427-61.947926-5.198428-92.94158 0-191.002823 134.922819-361.330082 321.751147-402.641826A487.588855 487.588855 0 0 1 433.281047 197.146418z m163.553551 365.937779c15.5559 10.318091 25.952755 25.795227 25.952755 46.47079 0 20.636181-10.396855 36.113317-25.992137 46.47079a47.337194 47.337194 0 0 1-51.866127 0c-15.5559-10.357473-25.952755-25.834609-25.952755-46.47079 0-20.675563 10.396855-36.152699 25.992137-46.47079a47.337194 47.337194 0 0 1 51.866127 0z m-311.354292 0c15.5559 10.318091 25.952755 25.795227 25.952755 46.47079 0 20.636181-10.396855 36.113317-25.952755 46.47079a47.337194 47.337194 0 0 1-51.905509 0c-15.5559-10.357473-25.913373-25.834609-25.913373-46.47079 0-20.675563 10.357473-36.152699 25.913373-46.47079a47.337194 47.337194 0 0 1 51.905509 0z m155.677146 0c15.5559 10.318091 25.952755 25.795227 25.952755 46.47079 0 30.954272-25.952755 51.590453-51.90551 51.590453-31.1118 0-51.866127-20.636181-51.866127-51.590453 0-20.675563 10.357473-36.152699 25.913373-46.47079a47.337194 47.337194 0 0 1 51.905509 0z" p-id="13269" fill="#2c2c2c"></path><path d="M609.71252 433.202278c61.751016 0 109.166974-18.194496 142.247875-54.032139 31.426856-34.183598 47.415958-82.150905 47.415959-142.799223 0-61.751016-14.886406-109.718322-44.107868-142.799224-31.978205-36.388991-78.842815-54.032139-141.145179-54.032139h-141.145178V433.202278h136.734391z m-7.718877-39.145733h-83.804949V78.685286h88.767084c51.826745 0 89.318433 13.23236 113.577761 40.24843 22.605282 25.362024 34.183598 64.507757 34.183598 117.4372 0 51.275397-12.681012 90.42113-36.940339 116.885851-25.913373 27.016069-64.507757 40.799778-115.783155 40.799778zM1134.596153 433.202278v-39.145733h-227.70687V39.539553h-44.659217V433.202278h272.366087z" p-id="13270" fill="#2c2c2c"></path></svg>