<?xml version="1.0" standalone="no"?><!DOCTYPE svg PUBLIC "-//W3C//DTD SVG 1.1//EN" "http://www.w3.org/Graphics/SVG/1.1/DTD/svg11.dtd"><svg t="1763389215264" class="icon" viewBox="0 0 1105 1024" version="1.1" xmlns="http://www.w3.org/2000/svg" p-id="5814" xmlns:xlink="http://www.w3.org/1999/xlink" width="215.8203125" height="200"><path d="M1096.34978 815.548137a96.315928 96.315928 0 0 1-5.001915 75.145036 122.954028 122.954028 0 0 1-34.897075 41.87649 292.902785 292.902785 0 0 1-66.304443 37.223547 764.711241 764.711241 0 0 1-87.940629 30.82575 542.882167 542.882167 0 0 1-132.841533 19.542362c-63.047383 0.581618-117.370496-14.307801-155.873603-52.345613a469.94728 469.94728 0 0 1-117.952114 0.348971c-38.852077 37.805165-92.942544 52.57826-155.757279 51.996642a544.62702 544.62702 0 0 1-132.957857-19.542362 772.039627 772.039627 0 0 1-87.824306-30.82575c-26.521777-11.399711-48.506935-23.264717-66.071795-37.223547a122.139763 122.139763 0 0 1-35.129723-41.87649c-11.516035-23.264717-13.726183-50.019141-4.88559-75.145036a99.340341 99.340341 0 0 1-3.838678-65.490177c2.90809-11.05074 7.677357-21.287216 13.726182-30.360456a100.852547 100.852547 0 0 1 24.427953-98.526076 95.73431 95.73431 0 0 1 32.803251-24.078981 485.650963 485.650963 0 1 1 945.710738-1.395883 96.199604 96.199604 0 0 1 36.176635 25.474864 101.201518 101.201518 0 0 1 24.427952 98.526076c6.048826 9.07324 10.818093 19.309715 13.726183 30.360456a100.154606 100.154606 0 0 1-3.722354 65.490177z" fill="#FFFFFF" p-id="5815"></path><path d="M549.16364 890.227878a404.224455 404.224455 0 1 0 0-808.448909 404.224455 404.224455 0 0 0 0 808.448909z" fill="#FFD21E" p-id="5816"></path><path d="M953.388095 486.003424a404.224455 404.224455 0 1 0-808.448909 0 404.224455 404.224455 0 0 0 808.448909 0z m-854.978343 0a450.753888 450.753888 0 1 1 901.507776 0 450.753888 450.753888 0 0 1-901.507776 0z" fill="#FF9D0B" p-id="5817"></path><path d="M680.492967 376.077637c14.889419 5.118238 20.705598 35.595017 35.71134 27.685013a58.161792 58.161792 0 1 0-78.634743-24.078982c7.095739 13.377212 29.662514-8.375298 43.039726-3.722355z m-273.942041 0c-14.889419 5.118238-20.821922 35.595017-35.71134 27.685013a58.161792 58.161792 0 1 1 78.634743-24.078982c-7.095739 13.377212-29.778838-8.375298-43.039726-3.722355z" fill="#3A3B45" p-id="5818"></path><path d="M546.255551 655.137915c114.346083 0 151.220659-101.89946 151.220659-154.245072 0-27.219719-18.262803-18.611773-47.576346-4.187649-27.103395 13.377212-63.512677 31.872662-103.52799 31.872662-83.636657 0-151.220659-80.030626-151.220659-27.685013s36.758253 154.245072 151.220659 154.245072z" fill="#FF323D" p-id="5819"></path><path d="M458.663892 628.499814a101.201518 101.201518 0 0 1 61.651499-52.229289c4.652943-1.395883 9.42221 6.630444 14.424125 14.889419 4.652943 7.910004 9.538534 15.936331 14.424124 15.936331 5.234561 0 10.469123-7.910004 15.471037-15.703684 5.234561-8.142651 10.352799-16.052655 15.354713-14.540448a100.154606 100.154606 0 0 1 58.161792 48.506934c43.388697-34.199134 59.325028-90.034454 59.325028-124.466234 0-27.219719-18.262803-18.611773-47.576346-4.187649l-1.62853 0.814265c-26.870748 13.377212-62.698412 31.058397-102.015783 31.058397s-75.028712-17.681185-102.015784-31.058397c-30.244132-15.005742-49.204876-24.427953-49.204876 3.373384 0 35.478693 16.983243 93.756809 63.629001 127.606971z" fill="#3A3B45" p-id="5820"></path><path d="M822.524063 430.749721a37.805165 37.805165 0 1 0 0-75.610329 37.805165 37.805165 0 0 0 0 75.610329z m-540.904666 0a37.805165 37.805165 0 1 0 0-75.610329 37.805165 37.805165 0 0 0 0 75.610329z m-77.820478 127.955943c-18.844421 0-35.595017 7.677357-47.343698 21.75251a69.44518 69.44518 0 0 0-15.471037 43.737668 82.589745 82.589745 0 0 0-22.566775-3.489708c-18.030156 0-34.315457 6.863091-45.831493 19.309715a67.467679 67.467679 0 0 0-9.305886 81.426509 61.6515 61.6515 0 0 0-20.821922 32.803251c-2.791766 10.469123-5.583532 32.570604 9.305887 55.137378a60.720911 60.720911 0 0 0-4.303973 58.39444c11.865006 26.987071 41.52752 48.157964 99.107694 70.957386 35.71134 14.191477 68.514591 23.264717 68.747238 23.38104a515.662448 515.662448 0 0 0 127.141677 18.611774c68.16562 0 116.905202-20.938245 144.939186-62.116794 45.133551-66.188119 38.735753-126.792707-19.775009-185.187146-32.221633-32.337956-53.741496-79.914302-58.161792-90.383425-9.07324-30.942073-33.035898-65.373854-72.70224-65.373854a66.304443 66.304443 0 0 0-53.508849 28.615602c-11.632358-14.656772-23.03207-26.172806-33.268545-32.803251A86.079452 86.079452 0 0 0 203.798919 558.705664z m0 46.529433c5.932503 0 13.260889 2.559119 21.170893 7.561033 24.893247 15.820007 72.70224 98.060781 90.267101 130.049767 5.816179 10.70177 15.936331 15.23839 24.893247 15.23839 18.030156 0 31.988986-17.797508 1.744853-40.480607-45.598845-34.08281-29.662514-89.801807-7.910003-93.175191 0.930589-0.232647 1.977501-0.232647 2.791766-0.232647 19.775009 0 28.499278 34.08281 28.499278 34.08281s25.591188 64.210618 69.561503 108.180933c43.853991 43.853991 46.180463 79.100037 14.191477 125.978441-21.868834 31.988986-63.629 41.643843-106.552403 41.643844-44.319286 0-89.91813-10.469123-115.392995-16.983244-1.279559-0.348971-156.455221-44.202962-136.796535-81.426509 3.25706-6.281474 8.724269-8.840592 15.58736-8.840592 27.685013 0 77.936801 41.178549 99.689312 41.178549 4.769267 0 8.142651-1.977501 9.654857-6.979415 9.189563-33.152221-140.286242-47.111052-127.723295-95.036368 2.326472-8.491622 8.258974-11.865006 16.750596-11.865006 36.525605 0 118.650056 64.326942 135.865946 64.326942 1.279559 0 2.326472-0.348971 2.791766-1.163236 8.607945-13.95883 3.838678-23.730011-56.998556-60.488264-60.604587-36.758253-103.295343-58.859734-79.100037-85.265187 2.791766-3.024413 6.746768-4.420296 11.632359-4.420296 36.874576 0 124.000941 79.332684 124.00094 79.332684s23.497364 24.427953 37.805165 24.427953c3.25706 0 6.048826-1.163236 7.910004-4.420296 10.003828-16.983243-93.756809-95.617986-99.572988-128.072266-3.955002-22.101481 2.791766-33.152221 15.238389-33.152222z" fill="#FF9D0B" p-id="5821"></path><path d="M449.009034 892.438026c31.988986-46.994728 29.662514-82.240774-14.191477-126.094765-43.970315-43.853991-69.561503-108.180933-69.561503-108.180933s-9.538534-37.223547-31.291044-33.733839c-21.75251 3.489708-37.688841 59.092381 7.910003 93.175191 45.482521 34.08281-9.07324 57.231203-26.6381 25.242217-17.448538-31.988986-65.373854-114.22976-90.267101-130.049767-24.776923-15.703684-42.225461-6.979415-36.409282 25.591189 5.816179 32.45428 109.69314 111.089023 99.572988 127.955942-10.120152 17.099567-45.715169-19.891333-45.715169-19.891333s-111.32167-101.317842-135.633299-74.912388c-24.195305 26.405454 18.49545 48.506935 79.100037 85.265187 60.837234 36.758253 65.606501 46.529434 56.998556 60.488264-8.724269 13.95883-142.845361-99.224017-155.408308-51.182377-12.562947 47.808993 136.912858 61.6515 127.723295 94.803721-9.305887 33.152221-105.389167-62.582088-124.931529-25.358541-19.775009 37.33987 135.516975 81.193862 136.796535 81.542832 50.019141 13.028241 177.393466 40.596931 221.945398-24.6606z" fill="#FFD21E" p-id="5822"></path><path d="M900.34454 558.705664c18.844421 0 35.71134 7.677357 47.343699 21.75251a69.44518 69.44518 0 0 1 15.471037 43.737668 82.589745 82.589745 0 0 1 22.683099-3.489708c18.030156 0 34.315457 6.863091 45.831492 19.309715a67.467679 67.467679 0 0 1 9.305887 81.426509 61.6515 61.6515 0 0 1 20.705598 32.803251c2.791766 10.469123 5.583532 32.570604-9.305887 55.137378a60.720911 60.720911 0 0 1 4.303972 58.39444c-11.865006 26.987071-41.52752 48.157964-98.99137 70.957386-35.827664 14.191477-68.630915 23.264717-68.863561 23.38104a515.662448 515.662448 0 0 1-127.141678 18.611774c-68.16562 0-116.905202-20.938245-144.939185-62.116794-45.133551-66.188119-38.735753-126.792707 19.775009-185.187146 32.337956-32.337956 53.857819-79.914302 58.278115-90.383425 9.07324-30.942073 32.919574-65.373854 72.585917-65.373854a66.304443 66.304443 0 0 1 53.508849 28.615602c11.632358-14.656772 23.03207-26.172806 33.384868-32.803251A86.079452 86.079452 0 0 1 900.34454 558.705664z m0 46.529433c-5.932503 0-13.144565 2.559119-21.170892 7.561033-24.776923 15.820007-72.70224 98.060781-90.267101 130.049767a28.266631 28.266631 0 0 1-24.893247 15.23839c-17.913832 0-31.988986-17.797508-1.62853-40.480607 45.482521-34.08281 29.54619-89.801807 7.79368-93.175191a17.913832 17.913832 0 0 0-2.791766-0.232647c-19.775009 0-28.499278 34.08281-28.499278 34.08281s-25.591188 64.210618-69.44518 108.180933c-43.970315 43.853991-46.296786 79.100037-14.191477 125.978441 21.75251 31.988986 63.629 41.643843 106.436079 41.643844 44.435609 0 89.91813-10.469123 115.509319-16.983244 1.163236-0.348971 156.455221-44.202962 136.796535-81.426509-3.373384-6.281474-8.724269-8.840592-15.58736-8.840592-27.685013 0-78.053125 41.178549-99.689312 41.178549-4.885591 0-8.258974-1.977501-9.654857-6.979415-9.305887-33.152221 140.169919-47.111052 127.606971-95.036368-2.210148-8.491622-8.142651-11.865006-16.750596-11.865006-36.525605 0-118.650056 64.326942-135.865946 64.326942-1.163236 0-2.210148-0.348971-2.675442-1.163236-8.607945-13.95883-3.955002-23.730011 56.765909-60.488264 60.837234-36.758253 103.52799-58.859734 79.100037-85.265187-2.675442-3.024413-6.630444-4.420296-11.399711-4.420296-36.9909 0-124.117264 79.332684-124.117264 79.332684s-23.497364 24.427953-37.688842 24.427953a8.607945 8.607945 0 0 1-7.910003-4.420296c-10.120152-16.983243 93.640485-95.617986 99.456664-128.072266 3.955002-22.101481-2.791766-33.152221-15.23839-33.152222z" fill="#FF9D0B" p-id="5823"></path><path d="M655.250749 892.438026c-31.988986-46.994728-29.778838-82.240774 14.191477-126.094765 43.853991-43.853991 69.44518-108.180933 69.44518-108.180933s9.538534-37.223547 31.407368-33.733839c21.636187 3.489708 37.572518 59.092381-7.910004 93.175191-45.598845 34.08281 9.07324 57.231203 26.521777 25.242217 17.564861-31.988986 65.490178-114.22976 90.267101-130.049767 24.776923-15.703684 42.341785-6.979415 36.409282 25.591189-5.816179 32.45428-109.576816 111.089023-99.456664 127.955942 10.003828 17.099567 45.598845-19.891333 45.598845-19.891333s111.437994-101.317842 135.633299-74.912388c24.195305 26.405454-18.379126 48.506935-79.100038 85.265187-60.837234 36.758253-65.490178 46.529434-56.998556 60.488264 8.724269 13.95883 142.845361-99.224017 155.408308-51.182377 12.562947 47.808993-136.796535 61.6515-127.606971 94.803721 9.305887 33.152221 105.272844-62.582088 124.931529-25.358541 19.658686 37.33987-135.516975 81.193862-136.796535 81.542832-50.135465 13.028241-177.509789 40.596931-221.945398-24.6606z" fill="#FFD21E" p-id="5824"></path></svg>